<svg xmlns="http://www.w3.org/2000/svg" width="45" height="45.398" viewBox="0 0 45 45.398">
  <g id="at" transform="translate(-2.15)">
    <path id="Caminho_39" data-name="Caminho 39" d="M40.936,5.723A21.921,21.921,0,0,0,25.5,0,23.047,23.047,0,0,0,8.975,6.511,21.5,21.5,0,0,0,2.15,22.718,22.171,22.171,0,0,0,8.642,38.7q6.515,6.7,17.522,6.7a32.8,32.8,0,0,0,13.03-2.732,2.777,2.777,0,0,0,1.5-3.584h0a2.769,2.769,0,0,0-3.667-1.5,27.43,27.43,0,0,1-10.873,2.389q-8.446,0-13.086-5.149A17.481,17.481,0,0,1,8.438,22.745,17.206,17.206,0,0,1,13.4,10.178,16.429,16.429,0,0,1,25.581,5.14,16.171,16.171,0,0,1,36.824,9.28,13.441,13.441,0,0,1,41.408,19.7a11.746,11.746,0,0,1-2.1,7.15c-1.4,1.908-2.852,2.852-4.362,2.852-.815,0-1.222-.435-1.222-1.315a24.378,24.378,0,0,1,.157-2.51L35.6,11.789H29.674l-.38,1.38a7.691,7.691,0,0,0-4.964-1.852A9.5,9.5,0,0,0,17,14.725a12.628,12.628,0,0,0-3.047,8.77,12.676,12.676,0,0,0,2.7,8.455,8.223,8.223,0,0,0,6.511,3.214,7.383,7.383,0,0,0,5.816-2.852,6.023,6.023,0,0,0,5.362,2.732,11.4,11.4,0,0,0,9-4.538,16.483,16.483,0,0,0,3.8-10.937A18.13,18.13,0,0,0,40.936,5.723ZM27.285,27.033a4.594,4.594,0,0,1-3.751,2.121A2.7,2.7,0,0,1,21.145,27.6a7.509,7.509,0,0,1-.917-3.871,7.643,7.643,0,0,1,1.278-4.612,3.815,3.815,0,0,1,3.167-1.76,3.953,3.953,0,0,1,2.917,1.315,4.826,4.826,0,0,1,1.278,3.51A8.016,8.016,0,0,1,27.285,27.033Z"/>
  </g>
</svg>
