<svg id="calendar" xmlns="http://www.w3.org/2000/svg" width="45.929" height="45.929" viewBox="0 0 45.929 45.929">
  <g id="Grupo_53" data-name="Grupo 53">
    <g id="Grupo_52" data-name="Grupo 52">
      <path id="Caminho_33" data-name="Caminho 33" d="M40.547,3.588H38.394V0H34.806V3.588H11.123V0H7.535V3.588H5.382A5.388,5.388,0,0,0,0,8.97V40.547a5.388,5.388,0,0,0,5.382,5.382H40.547a5.388,5.388,0,0,0,5.382-5.382V8.97A5.388,5.388,0,0,0,40.547,3.588Zm1.794,36.958a1.8,1.8,0,0,1-1.794,1.794H5.382a1.8,1.8,0,0,1-1.794-1.794V16.865H42.341Zm0-27.27H3.588V8.97A1.8,1.8,0,0,1,5.382,7.176H7.535v3.588h3.588V7.176H34.806v3.588h3.588V7.176h2.153A1.8,1.8,0,0,1,42.341,8.97Z"/>
    </g>
  </g>
  <g id="Grupo_55" data-name="Grupo 55" transform="translate(6.818 20.632)">
    <g id="Grupo_54" data-name="Grupo 54">
      <rect id="Retângulo_83" data-name="Retângulo 83" width="3.588" height="3.588"/>
    </g>
  </g>
  <g id="Grupo_57" data-name="Grupo 57" transform="translate(13.994 20.632)">
    <g id="Grupo_56" data-name="Grupo 56">
      <rect id="Retângulo_84" data-name="Retângulo 84" width="3.588" height="3.588"/>
    </g>
  </g>
  <g id="Grupo_59" data-name="Grupo 59" transform="translate(21.17 20.632)">
    <g id="Grupo_58" data-name="Grupo 58">
      <rect id="Retângulo_85" data-name="Retângulo 85" width="3.588" height="3.588"/>
    </g>
  </g>
  <g id="Grupo_61" data-name="Grupo 61" transform="translate(28.347 20.632)">
    <g id="Grupo_60" data-name="Grupo 60">
      <rect id="Retângulo_86" data-name="Retângulo 86" width="3.588" height="3.588"/>
    </g>
  </g>
  <g id="Grupo_63" data-name="Grupo 63" transform="translate(35.523 20.632)">
    <g id="Grupo_62" data-name="Grupo 62">
      <rect id="Retângulo_87" data-name="Retângulo 87" width="3.588" height="3.588"/>
    </g>
  </g>
  <g id="Grupo_65" data-name="Grupo 65" transform="translate(6.818 27.809)">
    <g id="Grupo_64" data-name="Grupo 64">
      <rect id="Retângulo_88" data-name="Retângulo 88" width="3.588" height="3.588"/>
    </g>
  </g>
  <g id="Grupo_67" data-name="Grupo 67" transform="translate(13.994 27.809)">
    <g id="Grupo_66" data-name="Grupo 66">
      <rect id="Retângulo_89" data-name="Retângulo 89" width="3.588" height="3.588"/>
    </g>
  </g>
  <g id="Grupo_69" data-name="Grupo 69" transform="translate(21.17 27.809)">
    <g id="Grupo_68" data-name="Grupo 68">
      <rect id="Retângulo_90" data-name="Retângulo 90" width="3.588" height="3.588"/>
    </g>
  </g>
  <g id="Grupo_71" data-name="Grupo 71" transform="translate(28.347 27.809)">
    <g id="Grupo_70" data-name="Grupo 70">
      <rect id="Retângulo_91" data-name="Retângulo 91" width="3.588" height="3.588"/>
    </g>
  </g>
  <g id="Grupo_73" data-name="Grupo 73" transform="translate(6.818 34.985)">
    <g id="Grupo_72" data-name="Grupo 72">
      <rect id="Retângulo_92" data-name="Retângulo 92" width="3.588" height="3.588"/>
    </g>
  </g>
  <g id="Grupo_75" data-name="Grupo 75" transform="translate(13.994 34.985)">
    <g id="Grupo_74" data-name="Grupo 74">
      <rect id="Retângulo_93" data-name="Retângulo 93" width="3.588" height="3.588"/>
    </g>
  </g>
  <g id="Grupo_77" data-name="Grupo 77" transform="translate(21.17 34.985)">
    <g id="Grupo_76" data-name="Grupo 76">
      <rect id="Retângulo_94" data-name="Retângulo 94" width="3.588" height="3.588"/>
    </g>
  </g>
  <g id="Grupo_79" data-name="Grupo 79" transform="translate(28.347 34.985)">
    <g id="Grupo_78" data-name="Grupo 78">
      <rect id="Retângulo_95" data-name="Retângulo 95" width="3.588" height="3.588"/>
    </g>
  </g>
  <g id="Grupo_81" data-name="Grupo 81" transform="translate(35.523 27.809)">
    <g id="Grupo_80" data-name="Grupo 80">
      <rect id="Retângulo_96" data-name="Retângulo 96" width="3.588" height="3.588"/>
    </g>
  </g>
</svg>
