<svg xmlns="http://www.w3.org/2000/svg" width="45" height="45" viewBox="0 0 45 45">
  <path id="cancel" d="M28.973,23.219a.993.993,0,0,1,0-1.438L44.384,6.37A2.22,2.22,0,0,0,45,4.932a2.22,2.22,0,0,0-.616-1.438L41.507.616A2.22,2.22,0,0,0,40.068,0,1.865,1.865,0,0,0,38.63.616L23.219,16.027a.993.993,0,0,1-1.438,0L6.37.616A2.22,2.22,0,0,0,4.932,0,2.22,2.22,0,0,0,3.493.616L.616,3.493A2.22,2.22,0,0,0,0,4.932,2.22,2.22,0,0,0,.616,6.37L16.027,21.781a.993.993,0,0,1,0,1.438L.616,38.63a1.986,1.986,0,0,0,0,2.877l2.877,2.877A2.22,2.22,0,0,0,4.932,45a2.22,2.22,0,0,0,1.438-.616L21.781,28.973a.993.993,0,0,1,1.438,0L38.63,44.384a1.986,1.986,0,0,0,2.877,0l2.877-2.877a1.986,1.986,0,0,0,0-2.877Z"/>
</svg>
