<svg id="company_1_" data-name="company (1)" xmlns="http://www.w3.org/2000/svg" width="45" height="45" viewBox="0 0 45 45">
  <path id="Caminho_1" data-name="Caminho 1" d="M34.453,5.273V0H10.547V5.273H0V45H45V5.273ZM31.816,2.637V42.363H29.18V26.279H15.82V42.363H13.184V2.637ZM26.543,31.553H18.457V28.916h8.086Zm-8.086,2.637h2.725v8.174H18.457Zm5.361,0h2.725v8.174H23.818ZM2.637,7.91h7.91V42.363H2.637ZM42.363,42.363h-7.91V7.91h7.91Z"/>
  <rect id="Retângulo_1" data-name="Retângulo 1" width="2.646" height="2.646" transform="translate(5.292 10.545)"/>
  <rect id="Retângulo_2" data-name="Retângulo 2" width="2.646" height="2.646" transform="translate(5.292 15.817)"/>
  <rect id="Retângulo_3" data-name="Retângulo 3" width="2.646" height="2.646" transform="translate(5.292 21.089)"/>
  <rect id="Retângulo_4" data-name="Retângulo 4" width="2.646" height="2.646" transform="translate(5.292 26.361)"/>
  <rect id="Retângulo_5" data-name="Retângulo 5" width="2.646" height="2.646" transform="translate(37.062 10.545)"/>
  <rect id="Retângulo_6" data-name="Retângulo 6" width="2.646" height="2.646" transform="translate(37.062 15.817)"/>
  <rect id="Retângulo_7" data-name="Retângulo 7" width="2.646" height="2.646" transform="translate(37.062 21.089)"/>
  <rect id="Retângulo_8" data-name="Retângulo 8" width="2.646" height="2.646" transform="translate(37.062 26.361)"/>
  <rect id="Retângulo_9" data-name="Retângulo 9" width="2.646" height="2.646" transform="translate(5.292 31.634)"/>
  <rect id="Retângulo_10" data-name="Retângulo 10" width="2.646" height="2.646" transform="translate(37.062 31.634)"/>
  <path id="Caminho_2" data-name="Caminho 2" d="M193.407,60H180v7.85h13.407Zm-2.646,5.2h-8.115V62.646h8.115Z" transform="translate(-164.204 -54.708)"/>
  <path id="Caminho_3" data-name="Caminho 3" d="M193.407,180H180v7.85h13.407Zm-2.646,5.2h-8.115v-2.558h8.115Z" transform="translate(-164.204 -164.192)"/>
</svg>
