<svg xmlns="http://www.w3.org/2000/svg" width="45" height="66.761" viewBox="0 0 45 66.761">
  <g id="employee" transform="translate(-83.447)">
    <g id="Grupo_24" data-name="Grupo 24" transform="translate(83.447)">
      <path id="Caminho_20" data-name="Caminho 20" d="M127.469,54.093a.978.978,0,0,0-.978.978v9.195a.541.541,0,0,1-.54.54h-5.257V45.547a.978.978,0,0,0-1.956,0V64.805H108.152l3.07-3.377a1.753,1.753,0,0,0,.423-1.407c0-.01,0-.02,0-.03l-2.924-17.273.788-1.186a2.218,2.218,0,0,0,1.4.607,1.713,1.713,0,0,0,1.533-.948h0l3.084-6.181,7.025,2.721a6.776,6.776,0,0,1,3.945,6.16v6.615a.978.978,0,1,0,1.956,0V43.892a8.728,8.728,0,0,0-5.162-7.971l-.019-.007-11.692-4.528V28.644a9.163,9.163,0,0,0,3.468-6.028,4.233,4.233,0,0,0,2.487-1.014,4.152,4.152,0,0,0,.433-5.858V12.12a12.12,12.12,0,1,0-24.241,0v3.718a3.927,3.927,0,0,0-1.008,2.618A4.144,4.144,0,0,0,94.155,21.6a4.231,4.231,0,0,0,2.485,1.014,9.067,9.067,0,0,0,3.666,6.173v2.6L88.627,35.914l-.018.007a8.728,8.728,0,0,0-5.162,7.971V64.265a2.5,2.5,0,0,0,2.5,2.5h9.318a.978.978,0,0,0,0-1.956h-2.1V45.547a.978.978,0,0,0-1.956,0V64.805H85.943a.541.541,0,0,1-.54-.54V43.892a6.776,6.776,0,0,1,3.943-6.159l7.02-2.721,3.084,6.181a1.712,1.712,0,0,0,1.533.948,2.216,2.216,0,0,0,1.4-.607l.788,1.186-2.924,17.273c0,.01,0,.02,0,.029a1.753,1.753,0,0,0,.423,1.407l3.07,3.377H99.825a.978.978,0,1,0,0,1.956h26.126a2.5,2.5,0,0,0,2.5-2.5V55.071A.978.978,0,0,0,127.469,54.093ZM113.689,34.3l-2.875,5.762-3.458-2.456,3.551-4.383Zm-5.781,6.1-.746,1.122h-2.439l-.746-1.122,1.965-1.4Zm-5.646-8.7v-1.83a9.923,9.923,0,0,0,3.7.7,9.181,9.181,0,0,0,3.658-.762v1.9l-3.675,4.536Zm14.752-13.246a2.191,2.191,0,0,1-.761,1.663,2.278,2.278,0,0,1-1.129.52V16.273A2.212,2.212,0,0,1,117.015,18.456ZM96.559,20.639a2.21,2.21,0,0,1-1.891-2.183,2.323,2.323,0,0,1,1.891-2.133Zm.053-6.309a4.835,4.835,0,0,0-.935.211V12.12a10.164,10.164,0,1,1,20.329,0v2.353a4.348,4.348,0,0,0-.882-.17c0-.944.008-.762-3.079-4.081a1.74,1.74,0,0,0-2.222-.271,18.855,18.855,0,0,1-11.4,3.068A1.739,1.739,0,0,0,96.612,14.33Zm1.9,7.079V14.986a20.9,20.9,0,0,0,12.223-3.3c1.416,1.52,2.183,2.317,2.43,2.621v7.1a7.327,7.327,0,0,1-14.653,0Zm2.558,18.656L98.2,34.3l2.776-1.075,3.552,4.384ZM102.2,60.2l2.831-16.725h1.835L109.691,60.2l-3.748,4.123Z" transform="translate(-83.447)"/>
    </g>
  </g>
</svg>
