<svg xmlns="http://www.w3.org/2000/svg" width="45.136" height="41.375" viewBox="0 0 45.136 41.375">
  <g id="Grupo_96" data-name="Grupo 96" transform="translate(1497 3239)">
    <g id="Grupo_37" data-name="Grupo 37" transform="translate(-1497 -3239)">
      <g id="Grupo_36" data-name="Grupo 36" transform="translate(0 0)">
        <g id="Grupo_35" data-name="Grupo 35">
          <g id="Grupo_34" data-name="Grupo 34">
            <g id="Grupo_33" data-name="Grupo 33">
              <g id="Grupo_32" data-name="Grupo 32">
                <g id="Grupo_31" data-name="Grupo 31">
                  <g id="Grupo_30" data-name="Grupo 30">
                    <g id="Grupo_29" data-name="Grupo 29">
                      <g id="Grupo_28" data-name="Grupo 28">
                        <g id="Grupo_27" data-name="Grupo 27">
                          <g id="survey" transform="translate(0 0)">
                            <g id="Grupo_26" data-name="Grupo 26" transform="translate(0 0)">
                              <g id="Grupo_25" data-name="Grupo 25">
                                <ellipse id="Elipse_3" data-name="Elipse 3" cx="0.94" cy="0.94" rx="0.94" ry="0.94" transform="translate(3.761 3.761)"/>
                                <ellipse id="Elipse_4" data-name="Elipse 4" cx="0.94" cy="0.94" rx="0.94" ry="0.94" transform="translate(7.523 3.761)"/>
                                <ellipse id="Elipse_5" data-name="Elipse 5" cx="0.94" cy="0.94" rx="0.94" ry="0.94" transform="translate(11.284 3.761)"/>
                                <path id="Caminho_21" data-name="Caminho 21" d="M107.606,215.214h20.687a.94.94,0,1,0,0-1.881H107.606a.94.94,0,1,0,0,1.881Z" transform="translate(-97.263 -196.407)"/>
                                <path id="Caminho_22" data-name="Caminho 22" d="M118.89,341.333H107.606a.94.94,0,1,0,0,1.881H118.89a.94.94,0,1,0,0-1.881Z" transform="translate(-97.263 -313.123)"/>
                                <path id="Caminho_23" data-name="Caminho 23" d="M41.536,32.617c-.054,0-.107.014-.162.016V25.094a3.766,3.766,0,0,0-3.761-3.761H3.761A3.766,3.766,0,0,0,0,25.094V58.946a3.766,3.766,0,0,0,3.761,3.761H37.613a3.766,3.766,0,0,0,3.761-3.761V41.469l2.707-2.707h0a3.6,3.6,0,0,0-2.546-6.144ZM1.881,25.094a1.883,1.883,0,0,1,1.881-1.881H37.613a1.883,1.883,0,0,1,1.881,1.881v3.761H1.881ZM39.494,58.946a1.883,1.883,0,0,1-1.881,1.881H3.761a1.882,1.882,0,0,1-1.881-1.881V30.736H39.494v2.523a3.537,3.537,0,0,0-.5.412L28.759,43.9H10.344a.94.94,0,0,0,0,1.881H27.251l-.9,4.517a.94.94,0,0,0,.922,1.125.96.96,0,0,0,.184-.018l4.7-.94a.935.935,0,0,0,.481-.257l6.86-6.859ZM31.507,48.677l-3.038.608.608-3.041,8.536-8.536,2.432,2.432ZM42.752,37.433,41.375,38.81l-2.432-2.432L40.32,35a1.72,1.72,0,0,1,2.432,2.433Z" transform="translate(0 -21.333)"/>
                              </g>
                            </g>
                          </g>
                        </g>
                      </g>
                    </g>
                  </g>
                </g>
              </g>
            </g>
          </g>
        </g>
      </g>
    </g>
  </g>
</svg>
