<svg xmlns="http://www.w3.org/2000/svg" width="63.501" height="57.622" viewBox="0 0 63.501 57.622">
  <g id="history" transform="translate(0 -3.315)">
    <g id="Grupo_45" data-name="Grupo 45">
      <path id="Caminho_24" data-name="Caminho 24" d="M34.688,3.315A28.823,28.823,0,0,0,5.878,32.044a33.351,33.351,0,0,0,1.034,8.941L3.031,38.723A2.016,2.016,0,1,0,1,42.205l9.1,5.3c.019.01.038.013.056.022a1.992,1.992,0,0,0,.3.126,2.153,2.153,0,0,0,.211.068,2.084,2.084,0,0,0,.262.033c.062.006.124.025.186.025.035,0,.068-.012.1-.014s.063.007.1,0c.05-.005.1-.026.144-.034a2.068,2.068,0,0,0,.282-.068,1.976,1.976,0,0,0,.23-.093,1.907,1.907,0,0,0,.241-.136,1.841,1.841,0,0,0,.4-.345,1.842,1.842,0,0,0,.159-.205c.027-.04.063-.069.087-.11s.018-.067.033-.1c.027-.055.069-.1.093-.162L16.6,37.562a2.015,2.015,0,1,0-3.736-1.51L11,40.652a29.861,29.861,0,0,1-1.1-8.525A24.779,24.779,0,1,1,34.689,56.9a2.016,2.016,0,0,0,0,4.032,28.811,28.811,0,1,0,0-57.622Z" fill="#1d1d1b"/>
      <path id="Caminho_25" data-name="Caminho 25" d="M33.916,36a2,2,0,0,0,.634.129c.045,0,.089.027.134.027a2,2,0,0,0,.684-.134,1.774,1.774,0,0,0,.177-.083,2.014,2.014,0,0,0,.463-.307c.031-.027.072-.037.1-.068L48.7,22.979a2.016,2.016,0,0,0-2.851-2.851L34.215,31.759,23.776,27.387a2.016,2.016,0,0,0-1.56,3.719L33.9,36l.012,0Z" fill="#1d1d1b"/>
    </g>
  </g>
</svg>
