<svg xmlns="http://www.w3.org/2000/svg" width="45" height="37.377" viewBox="0 0 45 37.377">
  <g id="left-arrow" transform="translate(0 -41.674)">
    <g id="Grupo_94" data-name="Grupo 94" transform="translate(0 41.674)">
      <path id="Caminho_35" data-name="Caminho 35" d="M42.47,56.834l.07.015H12.429l9.466-9.487a2.486,2.486,0,0,0,0-3.495l-1.473-1.474a2.464,2.464,0,0,0-3.478,0L.717,58.617a2.481,2.481,0,0,0,0,3.49L16.944,78.333a2.466,2.466,0,0,0,3.478,0l1.473-1.474a2.437,2.437,0,0,0,.718-1.739,2.364,2.364,0,0,0-.718-1.706l-9.573-9.54H42.5A2.55,2.55,0,0,0,45,61.351V59.266A2.5,2.5,0,0,0,42.47,56.834Z" transform="translate(0 -41.674)"/>
    </g>
  </g>
</svg>
