<svg xmlns="http://www.w3.org/2000/svg" width="51" height="68" viewBox="0 0 51 68">
  <g id="lock" transform="translate(-64)">
    <g id="Grupo_49" data-name="Grupo 49" transform="translate(64)">
      <path id="Caminho_32" data-name="Caminho 32" d="M113.583,25.5h-4.25V19.833a19.833,19.833,0,0,0-39.667,0V25.5h-4.25A1.416,1.416,0,0,0,64,26.917V62.333A5.672,5.672,0,0,0,69.667,68h39.667A5.672,5.672,0,0,0,115,62.333V26.917A1.416,1.416,0,0,0,113.583,25.5ZM93.742,55.094a1.417,1.417,0,0,1-1.408,1.573H86.667a1.417,1.417,0,0,1-1.408-1.573l.894-8.036A5.6,5.6,0,0,1,83.833,42.5a5.667,5.667,0,0,1,11.333,0,5.6,5.6,0,0,1-2.319,4.557ZM100.833,25.5H78.167V19.833a11.333,11.333,0,0,1,22.667,0Z" transform="translate(-64)"/>
    </g>
  </g>
</svg>
