<svg id="logout" xmlns="http://www.w3.org/2000/svg" width="45" height="45" viewBox="0 0 45 45">
  <g id="Grupo_47" data-name="Grupo 47">
    <g id="Grupo_46" data-name="Grupo 46">
      <path id="Caminho_26" data-name="Caminho 26" d="M29.429,33.75h-1.9a.944.944,0,0,0-.949.938V41.25H3.8V3.75H26.581v6.563a.944.944,0,0,0,.949.938h1.9a.944.944,0,0,0,.949-.938V3.75A3.774,3.774,0,0,0,26.581,0H3.8A3.774,3.774,0,0,0,0,3.75v37.5A3.774,3.774,0,0,0,3.8,45H26.581a3.774,3.774,0,0,0,3.8-3.75V34.687A.944.944,0,0,0,29.429,33.75Z"/>
      <path id="Caminho_27" data-name="Caminho 27" d="M161.868,138.42l-11.392-10.183a.966.966,0,0,0-1.023-.165.924.924,0,0,0-.567.847v1.851a.915.915,0,0,0,.314.688l6.6,5.792H128.949a.937.937,0,0,0-.949.926v1.851a.937.937,0,0,0,.949.926H155.8l-6.6,5.792a.915.915,0,0,0-.314.688v1.851a.924.924,0,0,0,.567.847.956.956,0,0,0,.382.079.966.966,0,0,0,.641-.243l11.392-10.183a.911.911,0,0,0,0-1.365Z" transform="translate(-117.175 -116.602)"/>
    </g>
  </g>
</svg>
