<svg xmlns="http://www.w3.org/2000/svg" width="47.332" height="62.229" viewBox="0 0 47.332 62.229">
  <g id="man-user" transform="translate(-41.895)">
    <path id="Caminho_28" data-name="Caminho 28" d="M117.063,30.434c6.919,0,12.528-6.813,12.528-15.217S127.75,0,117.063,0s-12.528,6.813-12.528,15.217S110.144,30.434,117.063,30.434Z" transform="translate(-51.503)"/>
    <path id="Caminho_29" data-name="Caminho 29" d="M41.9,300.635c0-.512,0-.144,0,0Z" transform="translate(0 -246.967)"/>
    <path id="Caminho_30" data-name="Caminho 30" d="M308.085,301.952c.007-.14,0-.973,0,0Z" transform="translate(-218.862 -247.883)"/>
    <path id="Caminho_31" data-name="Caminho 31" d="M89.207,199.192c-.232-14.64-2.144-18.812-16.775-21.452,0,0-2.06,2.624-6.86,2.624s-6.86-2.624-6.86-2.624c-14.472,2.612-16.5,6.722-16.767,20.977-.022,1.164-.032,1.225-.036,1.09,0,.253,0,.722,0,1.538,0,0,3.483,7.022,23.661,7.022s23.661-7.022,23.661-7.022c0-.525,0-.89,0-1.138A9.433,9.433,0,0,1,89.207,199.192Z" transform="translate(-0.011 -146.138)"/>
  </g>
</svg>
