<svg xmlns="http://www.w3.org/2000/svg" width="45.088" height="36.071" viewBox="0 0 45.088 36.071">
  <g id="photo-camera" transform="translate(0 -10)">
    <g id="Grupo_95" data-name="Grupo 95" transform="translate(0 10)">
      <path id="Caminho_38" data-name="Caminho 38" d="M22.544,23.526a6.763,6.763,0,1,0,6.763,6.763A6.764,6.764,0,0,0,22.544,23.526Zm18.035-6.763H35.169a2.008,2.008,0,0,1-1.781-1.283l-1.4-4.2A2.009,2.009,0,0,0,30.209,10H14.879A2.008,2.008,0,0,0,13.1,11.283l-1.4,4.2a2.009,2.009,0,0,1-1.781,1.283H4.509A4.522,4.522,0,0,0,0,21.272v20.29a4.522,4.522,0,0,0,4.509,4.509H40.579a4.522,4.522,0,0,0,4.509-4.509V21.272A4.522,4.522,0,0,0,40.579,16.763Zm-18.035,24.8A11.272,11.272,0,1,1,33.816,30.29,11.272,11.272,0,0,1,22.544,41.562ZM39,24.425a1.578,1.578,0,1,1,1.578-1.578A1.578,1.578,0,0,1,39,24.425Z" transform="translate(0 -10)" fill="#030104"/>
    </g>
  </g>
</svg>
